# xmcd
#
# Track frame offsets:
#	150
#	2285
#	4042
#	5492
#	9345
#	13842
#	17012
#	20237
#	22745
#	25767
#	29657
#	34555
#	37062
#	41572
#	48755
#	52735
#	57372
#	64595
#	68325
#	73000
#	86715
#	99957
#	106597
#	109865
#	112450
#	115682
#	121772
#	127207
#	134345
#	139357
#	148867
#	154945
#	161722
#	169177
#	174702
#	187140
#	194270
#	198080
#	202412
#	207152
#	219080
#	229909
#
# Disc length: 3125 seconds
#
# Revision: 1
# Processed by: cddbd v1.5.1PL0 Copyright (c) Steve Scherf et al.
# Submitted via: CDex 1.50Beta5
#
DISCID=450c332a
DTITLE=Ｗｉｌｌａｍ　Ｌ．Ｇｉｌｌｏｃｋ - はじめてのギロック　こどものためのアルバム
DYEAR=1998
DGENRE=Music
TTITLE0=小川で水遊び
TTITLE1=グレーの小さなロバ
TTITLE2=新しいローラースケート
TTITLE3=スイレン
TTITLE4=ガボット〜ミュゼット
TTITLE5=アルゼンチン
TTITLE6=おもちゃのダンス
TTITLE7=雪すべり
TTITLE8=女王様のメヌエット
TTITLE9=サーカスを見に行って
TTITLE10=サマータイムブルース
TTITLE11=インディアンの踊り
TTITLE12=東洋の市場
TTITLE13=コーラルプレリュード
TTITLE14=舞曲
TTITLE15=ウィンナーワルツ
TTITLE16=悲しいワルツ
TTITLE17=手品師
TTITLE18=祭り
TTITLE19=サラバンド
TTITLE20=ワルツ　エチュード
TTITLE21=古い農民歌
TTITLE22=フランス人形
TTITLE23=カプリッチエット
TTITLE24=タランテラ
TTITLE25=エチュード
TTITLE26=古典形式によるソナチネ　第一楽章
TTITLE27=古典形式によるソナチネ　第二楽章
TTITLE28=古典形式によるソナチネ　第三楽章
TTITLE29=雨の日の噴水
TTITLE30=雪の日のソリのベル
TTITLE31=クラッシックカーニバル　宮廷のコンサート
TTITLE32=クラッシックカーニバル　聖体行列
TTITLE33=クラッシックカーニバル　カーニバルの舞踏会
TTITLE34=金魚
TTITLE35=森の伝説
TTITLE36=森の妖精
TTITLE37=教会の鐘
TTITLE38=魔法の木
TTITLE39=ソナチネ　第一楽章
TTITLE40=ソナチネ　第二楽章
TTITLE41=ソナチネ　第三楽章
EXTD=
EXTT0=
EXTT1=
EXTT2=
EXTT3=
EXTT4=
EXTT5=
EXTT6=
EXTT7=
EXTT8=
EXTT9=
EXTT10=
EXTT11=
EXTT12=
EXTT13=
EXTT14=
EXTT15=
EXTT16=
EXTT17=
EXTT18=
EXTT19=
EXTT20=
EXTT21=
EXTT22=
EXTT23=
EXTT24=
EXTT25=
EXTT26=
EXTT27=
EXTT28=
EXTT29=
EXTT30=
EXTT31=
EXTT32=
EXTT33=
EXTT34=
EXTT35=
EXTT36=
EXTT37=
EXTT38=
EXTT39=
EXTT40=
EXTT41=
PLAYORDER=
